<svg width="106" height="36" viewBox="0 0 106 36" fill="none" xmlns="http://www.w3.org/2000/svg">
<g id="Group 54">
<g id="Gloo">
<path id="Vector" d="M81.7817 35.3867C74.9034 35.3867 69.3821 30.0058 69.3821 23.034C69.3821 16.0621 74.9034 10.6812 81.7817 10.6812C88.6599 10.6812 94.1812 16.0621 94.1812 23.034C94.1812 30.0058 88.6599 35.3867 81.7817 35.3867ZM81.7817 28.5553C84.8231 28.5553 87.1626 26.3561 87.1626 23.034C87.1626 19.7118 84.8231 17.5126 81.7817 17.5126C78.7402 17.5126 76.4007 19.7118 76.4007 23.034C76.4007 26.3561 78.7402 28.5553 81.7817 28.5553Z" fill="#232323"/>
<path id="Vector_2" d="M56.5219 35.3867C49.6436 35.3867 44.1223 30.0058 44.1223 23.034C44.1223 16.0621 49.6436 10.6812 56.5219 10.6812C63.4001 10.6812 68.9215 16.0621 68.9215 23.034C68.9215 30.0058 63.4001 35.3867 56.5219 35.3867ZM56.5219 28.5553C59.5633 28.5553 61.9028 26.3561 61.9028 23.034C61.9028 19.7118 59.5633 17.5126 56.5219 17.5126C53.4805 17.5126 51.1409 19.7118 51.1409 23.034C51.1409 26.3561 53.4805 28.5553 56.5219 28.5553Z" fill="#232323"/>
<path id="Vector_3" d="M35.4771 34.7317V0.574371H42.4957V34.7317H35.4771Z" fill="#232323"/>
<path id="Vector_4" d="M33.8298 16.4832V19.2907C33.8298 29.3039 26.8579 35.3867 17.6869 35.3867C7.39295 35.3867 0 27.8066 0 18.4016C0 8.90309 7.53332 1.32298 17.1722 1.32298C23.4422 1.32298 28.7296 4.41118 31.4902 8.80952L25.1267 12.4592C23.7697 10.3068 20.8219 8.62235 17.1254 8.62235C11.6041 8.62235 7.48653 12.6932 7.48653 18.4484C7.48653 24.0165 11.417 28.0873 17.7805 28.0873C22.1321 28.0873 24.9863 26.1689 26.1561 23.0339H17.4062V16.4832H33.8298Z" fill="#232323"/>
</g>
<g id="Layer 1">
<path id="Vector_5" d="M91.9723 10.6812V8.35685C89.4594 7.50679 88.3071 6.07342 88.4262 4.0283C88.54 2.04719 90.0837 0.405756 91.9918 0.231475C94.0903 0.0394112 95.89 1.29316 96.3773 3.28672C97.1064 6.26727 95.0257 9.87736 91.9723 10.6812Z" fill="#232323"/>
<path id="Vector_6" d="M100.877 10.6812V8.35682C98.362 7.50676 97.2096 6.07339 97.3288 4.02827C97.4444 2.04716 98.988 0.405725 100.896 0.231445C102.995 0.0393807 104.794 1.29313 105.282 3.28669C106.011 6.26724 103.93 9.87733 100.877 10.6812Z" fill="#232323"/>
</g>
</g>
</svg>
